<?xml version="1.0" encoding="utf-8"?>
<!-- Generator: Adobe Illustrator 16.0.0, SVG Export Plug-In . SVG Version: 6.00 Build 0)  -->
<!DOCTYPE svg PUBLIC "-//W3C//DTD SVG 1.1//EN" "http://www.w3.org/Graphics/SVG/1.1/DTD/svg11.dtd">
<svg version="1.1" id="Ebene_1" xmlns="http://www.w3.org/2000/svg" xmlns:xlink="http://www.w3.org/1999/xlink" x="0px" y="0px"
	 width="64px" height="64px" viewBox="0 0 64 64" enable-background="new 0 0 64 64" xml:space="preserve">
<path d="M53.546,49.511L39.145,35.109C40.94,32.523,42,29.387,42,26c0-8.836-7.163-16-16-16c-8.836,0-16,7.164-16,16
	c0,8.837,7.164,16,16,16c3.644,0,6.992-1.231,9.682-3.283l14.329,14.329L53.546,49.511z M26,37.5c-6.351,0-11.5-5.148-11.5-11.5
	c0-6.351,5.149-11.5,11.5-11.5c6.352,0,11.5,5.149,11.5,11.5C37.5,32.352,32.352,37.5,26,37.5z"/>
</svg>
